<svg xmlns="http://www.w3.org/2000/svg" version="1.1" xmlns:xlink="http://www.w3.org/1999/xlink" width="512" height="512" x="0" y="0" viewBox="0 0 64 64" style="enable-background:new 0 0 512 512" xml:space="preserve"><g><path d="M31 37H8.002a1 1 0 0 1-1-1V23a1 1 0 0 1 1-1H31a1 1 0 0 1 0 2H9.002v11H31a1 1 0 0 1 0 2z" fill="#000000" opacity="1" data-original="#000000"></path><path d="M31.002 36.986a1 1 0 0 1-1-1L30 25.037l-9.888 7.646a.997.997 0 0 1-1.222 0L7.39 23.79a1 1 0 0 1 1.223-1.582l10.888 8.419 10.888-8.419A1 1 0 0 1 32 23l.002 12.986a1 1 0 0 1-1 1z" fill="#000000" opacity="1" data-original="#000000"></path><path d="M38.002 46h-21a1 1 0 0 1 0-2h20V14h-35v30h3a1 1 0 1 1 0 2h-4a1 1 0 0 1-1-1V13a1 1 0 0 1 1-1h37a1 1 0 0 1 1 1v32a1 1 0 0 1-1 1z" fill="#000000" opacity="1" data-original="#000000"></path><path d="M41.002 46h-3.52a1 1 0 1 1 0-2h3.52a1 1 0 0 1 0 2zM60.412 46h-7.41a1 1 0 1 1 0-2h7.41a1.53 1.53 0 0 0 1.19-.57 1.758 1.758 0 0 0 .367-1.448l-1.6-8.662a1.634 1.634 0 0 0-1.567-1.36h-20.8a1 1 0 0 1 0-2h20.8a3.637 3.637 0 0 1 3.532 2.992l1.602 8.667a3.748 3.748 0 0 1-.797 3.09A3.542 3.542 0 0 1 60.412 46z" fill="#000000" opacity="1" data-original="#000000"></path><path d="M57.003 31.96a1 1 0 0 1-.917-.6l-5.56-12.73A1.214 1.214 0 0 0 49.4 18H38.002a1 1 0 0 1 0-2h11.4a3.21 3.21 0 0 1 2.957 1.834l5.559 12.726a1 1 0 0 1-.516 1.316.988.988 0 0 1-.4.084zM11.002 52a7 7 0 1 1 7-7 7.008 7.008 0 0 1-7 7zm0-12a5 5 0 1 0 5 5 5.006 5.006 0 0 0-5-5z" fill="#000000" opacity="1" data-original="#000000"></path><path d="M11.002 48a3 3 0 1 1 3-3 3.003 3.003 0 0 1-3 3zm0-4a1 1 0 1 0 1 1 1 1 0 0 0-1-1zM47.002 52a7 7 0 1 1 7-7 7.008 7.008 0 0 1-7 7zm0-12a5 5 0 1 0 5 5 5.006 5.006 0 0 0-5-5z" fill="#000000" opacity="1" data-original="#000000"></path><path d="M47.002 48a3 3 0 1 1 3-3 3.003 3.003 0 0 1-3 3zm0-4a1 1 0 1 0 1 1 1 1 0 0 0-1-1zM37.485 20H1a1 1 0 0 1 0-2h36.485a1 1 0 0 1 0 2zM62.063 38h-5.061a1 1 0 1 1 0-2h5.062a1 1 0 0 1 0 2z" fill="#000000" opacity="1" data-original="#000000"></path></g></svg>