<svg xmlns="http://www.w3.org/2000/svg" version="1.1" xmlns:xlink="http://www.w3.org/1999/xlink" width="512" height="512" x="0" y="0" viewBox="0 0 512 512" style="enable-background:new 0 0 512 512" xml:space="preserve" class=""><g><path d="M444.875 109.792 338.208 3.125c-2-2-4.708-3.125-7.542-3.125h-224C83.146 0 64 19.135 64 42.667v426.667C64 492.865 83.146 512 106.667 512h298.667c23.52 0 42.666-19.135 42.666-42.667v-352c0-2.833-1.125-5.541-3.125-7.541zM341.333 36.417l70.25 70.25h-48.917c-11.771 0-21.333-9.573-21.333-21.333V36.417zm85.334 432.916c0 11.76-9.563 21.333-21.333 21.333H106.667c-11.771 0-21.333-9.573-21.333-21.333V42.667c0-11.76 9.563-21.333 21.333-21.333H320v64C320 108.865 339.146 128 362.667 128h64v341.333z" fill="#000000" opacity="1" data-original="#000000" class=""></path><path d="M373.333 298.667H224a10.66 10.66 0 0 0-10.667 10.667A10.66 10.66 0 0 0 224 320.001h149.333A10.66 10.66 0 0 0 384 309.334a10.66 10.66 0 0 0-10.667-10.667zM138.667 128h128a10.66 10.66 0 0 0 10.667-10.667 10.66 10.66 0 0 0-10.667-10.667h-128A10.66 10.66 0 0 0 128 117.333 10.66 10.66 0 0 0 138.667 128zM373.333 234.667H138.667A10.66 10.66 0 0 0 128 245.334a10.66 10.66 0 0 0 10.667 10.667h234.667a10.66 10.66 0 0 0 10.667-10.667 10.662 10.662 0 0 0-10.668-10.667zM128 181.333A10.66 10.66 0 0 0 138.667 192h234.667a10.66 10.66 0 0 0 10.667-10.667 10.66 10.66 0 0 0-10.667-10.667H138.667A10.662 10.662 0 0 0 128 181.333zM280.521 387.063c-15.688 15.438-35.458 32.833-43.292 38.125-1.854-4.198-3.958-11.219-5.229-15.479-4.333-14.365-7.729-25.709-18.667-25.709-9.354 0-13.563 8.552-19.938 21.49-3.125 6.333-9.604 19.521-11.958 21.177-2.313-.24-6.271-2.938-10.625-7C182.563 404.49 192 386.917 192 373.333c0-23.313-19.625-32-32-32-12.583 0-32 18.323-32 42.667 0 10.792 5.979 24.125 14.458 35.823-3.375 3.375-6.813 6.438-10.188 8.979-4.708 3.531-5.667 10.219-2.146 14.927a10.664 10.664 0 0 0 14.938 2.136c3.688-2.76 7.646-6.229 11.625-10.188 8.354 7.438 17.229 12.323 24.646 12.323 14.417 0 22.979-16.406 30.417-31.5 4.917 16.292 9.667 31.5 22.917 31.5 3.563 0 14.375 0 60.813-45.729 4.208-4.135 4.25-10.885.125-15.083-4.126-4.219-10.876-4.24-15.084-.125zM156.75 402.917c-4.333-6.604-7.417-13.458-7.417-18.917 0-13.01 9.542-20.625 10.667-21.333 1.771 0 10.667.51 10.667 10.667 0 6.801-5.75 18.281-13.917 29.583z" fill="#000000" opacity="1" data-original="#000000" class=""></path></g></svg>