<svg xmlns="http://www.w3.org/2000/svg" version="1.1" xmlns:xlink="http://www.w3.org/1999/xlink" width="512" height="512" x="0" y="0" viewBox="0 0 24 24" style="enable-background:new 0 0 512 512" xml:space="preserve" class="hovered-paths"><g><g data-name="Layer 2"><path d="M18 22.75H6A4.756 4.756 0 0 1 1.25 18V6A4.756 4.756 0 0 1 6 1.25h12A4.756 4.756 0 0 1 22.75 6v12A4.756 4.756 0 0 1 18 22.75zm-12-20A3.254 3.254 0 0 0 2.75 6v12A3.254 3.254 0 0 0 6 21.25h12A3.254 3.254 0 0 0 21.25 18V6A3.254 3.254 0 0 0 18 2.75z" fill="#000000" opacity="1" data-original="#000000" class="hovered-path"></path><path d="M12 17.75a.75.75 0 0 1-.75-.75V7a.75.75 0 0 1 1.5 0v10a.75.75 0 0 1-.75.75z" fill="#000000" opacity="1" data-original="#000000" class="hovered-path"></path><path d="M17 12.75H7a.75.75 0 0 1 0-1.5h10a.75.75 0 0 1 0 1.5z" fill="#000000" opacity="1" data-original="#000000" class="hovered-path"></path></g></g></svg>